# xmcd
#
# Track frame offsets: 
#        150
#        20691
#        38651
#        52081
#        71112
#        89523
#        106209
#        121142
#        141198
#        157202
#        174001
#        191942
#
# Disc length: 2795 seconds
#
# Revision: 14
# Processed by: cddbd v1.5.2PL0 Copyright (c) Steve Scherf et al.
# Submitted via: ExactAudioCopy v1.3
#
DISCID=aa0ae90c
DTITLE=Beyoncé - 4
DYEAR=2011
DGENRE=R&B
TTITLE0=1+1
TTITLE1=I Care
TTITLE2=I Miss You
TTITLE3=Best Thing I Never Had
TTITLE4=Party (Feat. André 3000)
TTITLE5=Rather Die Young
TTITLE6=Start Over
TTITLE7=Love On Top
TTITLE8=Countdown
TTITLE9=End of Time
TTITLE10=I Was Here
TTITLE11=Run The World (Girls)
EXTD=
EXTT0=
EXTT1=
EXTT2=
EXTT3=
EXTT4=
EXTT5=
EXTT6=
EXTT7=
EXTT8=
EXTT9=
EXTT10=
EXTT11=
PLAYORDER=
